<?xml version="1.0" encoding="UTF-8"?>
<svg xmlns="http://www.w3.org/2000/svg" xmlns:xlink="http://www.w3.org/1999/xlink" width="800px" height="1000px" viewBox="0 0 1600 900" version="1.1">
<g id="surface1">
<path style=" stroke:none;fill-rule:nonzero;fill:rgb(14.509805%,38.82353%,92.156863%);fill-opacity:1;" d="M 368.359375 132.226562 C 365.625 134.277344 361.640625 139.355469 355.78125 148.242188 C 355 149.511719 353.359375 151.953125 352.109375 153.613281 C 350.9375 155.371094 345 165.332031 338.984375 175.78125 C 332.96875 186.230469 326.796875 196.679688 325.3125 199.023438 C 321.71875 204.785156 321.71875 208.984375 325.234375 213.378906 C 328.125 216.992188 331.015625 218.261719 333.90625 217.382812 C 336.71875 216.503906 338.046875 214.453125 339.375 208.691406 C 340.3125 204.6875 341.640625 202.34375 345.46875 197.65625 C 348.203125 194.335938 351.25 189.84375 352.34375 187.597656 C 356.71875 178.515625 366.796875 161.71875 372.03125 154.980469 C 374.296875 152.050781 375.3125 151.367188 376.71875 151.855469 C 379.375 152.734375 387.578125 163.964844 394.921875 176.757812 C 398.4375 182.910156 402.1875 188.867188 403.125 189.941406 C 406.09375 193.261719 414.84375 207.226562 415.9375 210.351562 C 418.359375 217.285156 423.984375 220.3125 427.65625 216.699219 C 430 214.355469 432.03125 209.375 432.03125 205.859375 C 432.03125 202.34375 429.21875 196.191406 424.921875 190.429688 C 422.8125 187.5 418.28125 180.46875 415 174.902344 C 403.984375 156.25 392.34375 137.988281 389.6875 135.253906 C 385.859375 131.152344 382.65625 129.882812 376.796875 129.882812 C 372.578125 129.882812 370.859375 130.371094 368.359375 132.226562 Z M 368.359375 132.226562 "/>
<path style=" stroke:none;fill-rule:nonzero;fill:rgb(14.509805%,38.82353%,92.156863%);fill-opacity:1;" d="M 210.9375 158.886719 C 206.484375 159.570312 203.125 161.328125 201.640625 163.769531 C 200.703125 165.136719 200 165.820312 200 165.332031 C 200 164.746094 200.78125 163.085938 201.71875 161.523438 C 202.96875 159.570312 203.046875 159.082031 202.109375 160.058594 C 198.4375 163.769531 197.421875 171.289062 199.921875 176.074219 C 202.96875 181.835938 203.671875 182.03125 219.6875 181.738281 C 239.84375 181.347656 239.6875 181.25 245.234375 204.296875 C 246.953125 211.621094 249.140625 221.09375 249.921875 225.292969 C 250.78125 229.492188 252.890625 239.257812 254.609375 247.070312 C 256.40625 254.882812 259.765625 270.410156 262.1875 281.738281 C 268.28125 310.644531 269.453125 315.429688 270.703125 316.015625 C 271.25 316.308594 275.46875 316.113281 280 315.527344 C 293.984375 313.769531 319.921875 313.183594 328.515625 314.355469 C 352.109375 317.675781 381.640625 326.367188 408.984375 337.890625 C 441.015625 351.367188 450.625 354.589844 460.546875 355.175781 C 466.640625 355.46875 469.6875 355.175781 471.09375 354.296875 C 473.59375 352.636719 478.28125 340.820312 480.46875 330.566406 C 481.40625 326.269531 482.96875 319.628906 484.0625 315.917969 C 485.15625 312.109375 486.796875 305.078125 487.8125 300.292969 C 488.828125 295.410156 491.796875 281.152344 494.53125 268.554688 C 505.46875 217.285156 505.625 213.378906 497.578125 204.6875 C 492.65625 199.414062 489.609375 199.023438 462.890625 199.414062 C 450 199.511719 439.0625 200 438.59375 200.390625 C 437.96875 200.878906 437.96875 202.636719 438.4375 206.347656 C 439.0625 210.644531 438.90625 212.402344 437.578125 216.894531 C 436.640625 219.824219 434.6875 223.730469 433.203125 225.585938 C 430.703125 228.613281 430 228.90625 426.40625 228.808594 C 421.171875 228.613281 416.40625 226.953125 413.828125 224.316406 C 411.015625 221.386719 406.484375 211.621094 405 205.46875 C 403.90625 200.488281 403.828125 200.488281 400.234375 199.804688 C 394.609375 198.828125 353.4375 199.121094 351.328125 200.097656 C 349.765625 200.878906 349.375 201.953125 348.90625 206.25 C 348.046875 214.648438 346.71875 218.847656 343.75 222.753906 C 339.6875 228.027344 332.578125 229.882812 325.625 227.441406 C 319.140625 225.292969 313.90625 210.9375 316.40625 202.734375 C 317.34375 199.511719 319.453125 199.804688 288.359375 199.707031 L 263.046875 199.707031 L 259.765625 187.988281 C 257.96875 181.542969 256.015625 174.902344 255.3125 173.339844 C 253.359375 168.75 248.4375 163.476562 243.75 160.644531 C 239.609375 158.300781 238.984375 158.203125 226.171875 158.398438 C 218.90625 158.496094 212.03125 158.691406 210.9375 158.886719 Z M 384.21875 225.195312 L 385.9375 226.660156 L 385.9375 309.570312 L 382.734375 313.476562 C 380.9375 315.625 379.140625 317.382812 378.59375 317.382812 C 378.125 317.382812 375.78125 315.234375 373.4375 312.597656 L 369.140625 307.8125 L 368.90625 268.164062 C 368.671875 229.199219 368.75 228.515625 370.3125 226.855469 C 373.4375 223.4375 381.171875 222.558594 384.21875 225.195312 Z M 480.390625 226.367188 C 482.96875 228.808594 482.96875 229.296875 477.96875 256.347656 C 475.78125 268.164062 473.046875 283.496094 471.796875 290.527344 C 470.546875 297.460938 469.0625 305.371094 468.4375 308.105469 C 467.8125 310.742188 466.875 315.625 466.40625 318.847656 C 465.859375 322.070312 465.078125 325.292969 464.6875 325.878906 C 463.4375 327.832031 459.53125 327.34375 457.8125 325.195312 C 456.171875 323.144531 456.171875 322.65625 456.71875 275.585938 C 457.34375 220.214844 456.40625 225 466.40625 224.316406 C 474.921875 223.730469 478.125 224.21875 480.390625 226.367188 Z M 295.78125 225.976562 C 297.1875 227.34375 297.265625 229.003906 297.5 260.9375 C 297.734375 299.121094 297.96875 297.851562 291.71875 298.535156 C 286.015625 299.21875 284.921875 297.65625 282.578125 285.15625 C 281.484375 279.492188 279.53125 270.3125 278.28125 264.648438 C 275 250.585938 271.875 233.300781 271.875 229.199219 C 271.875 227.246094 272.34375 225.488281 272.890625 225.292969 C 273.359375 225 278.4375 224.707031 284.0625 224.707031 C 291.71875 224.609375 294.609375 225 295.78125 225.976562 Z M 354.375 225.976562 C 355.78125 227.34375 355.859375 228.90625 355.9375 264.355469 C 356.015625 285.742188 355.703125 302.050781 355.3125 303.125 C 354.609375 304.6875 353.828125 304.882812 349.140625 304.492188 C 345.3125 304.199219 343.203125 303.613281 341.640625 302.148438 L 339.453125 300.097656 L 339.0625 281.640625 C 338.828125 271.484375 338.828125 255.566406 339.0625 246.191406 L 339.453125 229.296875 L 342.96875 226.953125 C 346.953125 224.316406 352.03125 223.925781 354.375 225.976562 Z M 411.953125 228.417969 L 415.234375 232.324219 L 415.46875 274.707031 C 415.78125 323.4375 416.328125 319.824219 408.125 319.824219 C 404.375 319.824219 402.734375 319.335938 401.015625 317.773438 L 398.828125 315.722656 L 398.59375 271.875 C 398.4375 228.125 398.4375 228.027344 400.078125 226.269531 C 401.09375 225.292969 403.046875 224.609375 405.15625 224.609375 C 408.125 224.609375 409.140625 225.195312 411.953125 228.417969 Z M 443.125 226.269531 C 444.453125 227.734375 444.53125 230.566406 444.53125 276.5625 L 444.53125 325.195312 L 442.421875 326.269531 C 441.171875 326.855469 438.4375 327.050781 436.015625 326.660156 C 430.390625 325.78125 428.125 323.046875 428.046875 316.699219 C 427.734375 305.371094 428.28125 233.691406 428.59375 232.128906 C 428.828125 231.25 429.453125 230.46875 430 230.46875 C 430.46875 230.46875 432.5 229.199219 434.375 227.636719 C 438.4375 224.316406 441.09375 223.925781 443.125 226.269531 Z M 321.015625 228.515625 C 323.515625 230.078125 325.78125 232.03125 326.09375 232.910156 C 326.328125 233.789062 326.5625 248.828125 326.5625 266.210938 L 326.5625 297.851562 L 324.6875 298.828125 C 321.953125 300.097656 311.5625 298.144531 310.3125 296.09375 C 308.828125 293.652344 309.296875 229.492188 310.859375 227.246094 C 312.421875 224.804688 315.859375 225.195312 321.015625 228.515625 Z M 321.015625 228.515625 "/>
<path style=" stroke:none;fill-rule:nonzero;fill:rgb(14.509805%,38.82353%,92.156863%);fill-opacity:1;" d="M 598.4375 225.585938 C 598.4375 226.074219 598.828125 226.5625 599.21875 226.5625 C 599.6875 226.5625 600 227.441406 600 228.515625 C 600 229.589844 600.46875 230.46875 601.09375 230.46875 C 602.65625 230.46875 603.125 232.714844 603.125 239.84375 C 603.125 243.945312 603.4375 246.09375 604.0625 246.09375 C 604.53125 246.09375 604.765625 246.289062 604.53125 246.582031 C 604.296875 246.875 601.875 246.191406 599.140625 245.117188 C 590.703125 241.796875 578.046875 240.039062 570.46875 241.210938 C 562.421875 242.480469 557.96875 244.53125 551.796875 249.804688 C 545.9375 254.785156 542.890625 259.277344 539.453125 268.066406 C 535.78125 277.441406 534.140625 285.839844 534.53125 294.335938 L 534.765625 301.269531 L 531.640625 301.074219 C 529.53125 300.878906 528.046875 300.097656 527.109375 298.730469 C 525.078125 295.605469 524.609375 297.070312 525.546875 303.515625 C 526.484375 309.863281 526.328125 310.742188 524.53125 308.007812 C 523.828125 307.03125 524.296875 308.59375 525.625 311.523438 C 529.765625 321.191406 536.5625 325.78125 545.703125 325 C 550.859375 324.609375 557.34375 321.191406 558.59375 318.261719 C 559.296875 316.699219 558.984375 316.210938 556.71875 315.039062 C 549.0625 311.035156 544.453125 301.464844 544.453125 289.550781 C 544.453125 278.90625 548.28125 269.53125 555 263.671875 C 566.953125 253.515625 592.8125 256.835938 606.09375 270.214844 C 608.359375 272.558594 609.296875 274.21875 608.984375 275.195312 C 608.75 275.976562 609.765625 279.785156 611.171875 283.59375 C 612.65625 287.402344 614.453125 293.457031 615.15625 297.070312 C 616.25 302.050781 616.953125 303.710938 617.96875 303.710938 C 618.90625 303.710938 619.6875 305.46875 620.859375 310.546875 C 621.71875 314.257812 622.1875 317.089844 621.796875 316.894531 C 621.484375 316.601562 621.25 319.726562 621.328125 323.828125 C 621.40625 329.199219 621.171875 331.542969 620.546875 331.738281 C 619.84375 332.03125 619.53125 334.375 619.53125 338.769531 C 619.53125 344.140625 619.21875 345.703125 617.96875 347.167969 C 617.109375 348.144531 616.25 349.707031 616.015625 350.683594 C 615.703125 351.757812 615.234375 352.34375 614.921875 352.050781 C 614.53125 351.855469 613.671875 354.296875 612.890625 357.519531 C 612.109375 360.742188 610.078125 366.308594 608.4375 369.824219 C 606.796875 373.339844 605.46875 376.367188 605.46875 376.5625 C 605.46875 376.855469 603.4375 380.859375 600.859375 385.546875 C 592.65625 400.78125 579.0625 414.648438 561.328125 425.78125 C 551.71875 431.835938 547.5 433.691406 536.71875 436.425781 C 525.390625 439.355469 517.109375 440.429688 505.3125 440.429688 C 492.03125 440.429688 486.875 439.550781 465.3125 433.496094 C 439.6875 426.269531 438.75 425.976562 407.421875 411.914062 C 402.734375 409.765625 395.859375 406.933594 392.1875 405.664062 C 388.515625 404.296875 382.734375 402.148438 379.296875 400.878906 C 370.9375 397.65625 354.84375 393.359375 353.671875 393.945312 C 353.125 394.140625 353.359375 394.433594 354.140625 394.433594 C 354.84375 394.53125 355.46875 395.019531 355.46875 395.605469 C 355.46875 396.09375 355.15625 396.289062 354.6875 395.996094 C 354.296875 395.703125 353.90625 395.898438 353.90625 396.386719 C 353.90625 396.972656 355.078125 397.460938 356.5625 397.460938 C 359.375 397.460938 360.3125 398.925781 359.609375 402.246094 C 359.0625 404.785156 361.015625 407.226562 363.59375 407.226562 C 364.921875 407.226562 365.625 407.714844 365.625 408.789062 C 365.625 410.546875 364.765625 410.449219 356.25 407.714844 C 347.8125 405.078125 328.4375 400.488281 320.859375 399.316406 C 316.875 398.828125 306.328125 398.339844 297.265625 398.242188 C 282.578125 398.144531 279.6875 398.4375 269.53125 400.78125 C 250.15625 405.371094 239.140625 409.570312 231.25 415.527344 C 229.765625 416.699219 224.6875 420.214844 219.921875 423.339844 C 200.859375 435.9375 189.53125 446.972656 173.59375 468.261719 C 166.171875 478.222656 164.140625 481.445312 165.46875 481.445312 C 166.25 481.445312 169.375 478.515625 186.015625 462.304688 C 190.625 457.8125 197.8125 451.464844 202.03125 448.144531 C 215 437.988281 236.328125 425.195312 249.0625 419.921875 C 269.453125 411.425781 293.59375 407.714844 312.890625 410.058594 C 332.96875 412.597656 372.1875 424.609375 368.828125 427.148438 C 368.359375 427.539062 366.796875 427.148438 365.390625 426.269531 C 359.921875 422.753906 348.4375 423.925781 348.4375 427.929688 C 348.4375 429.199219 347.8125 429.6875 346.171875 429.6875 C 344.53125 429.6875 343.671875 430.273438 343.359375 431.640625 C 343.125 432.714844 342.5 433.59375 342.109375 433.59375 C 340.625 433.59375 341.484375 437.890625 343.4375 440.039062 C 345.703125 442.773438 345.234375 442.871094 337.890625 440.820312 C 296.796875 429.785156 281.015625 429.003906 250 437.011719 C 222.1875 444.042969 196.09375 461.230469 178.671875 483.789062 C 172.578125 491.796875 164.84375 504.394531 164.84375 506.445312 C 164.84375 506.933594 168.28125 503.125 172.421875 497.949219 C 193.59375 472.070312 213.4375 457.8125 239.53125 449.804688 C 260 443.457031 263.125 442.96875 287.109375 442.96875 C 311.09375 442.871094 312.03125 442.96875 333.203125 449.316406 C 355.546875 455.957031 363.359375 459.472656 403.90625 480.957031 C 449.140625 504.882812 479.453125 513.964844 514.453125 514.0625 C 547.03125 514.0625 573.203125 505.175781 600.078125 484.765625 C 618.4375 470.898438 637.1875 447.949219 648.203125 425.976562 C 655.859375 410.742188 663.359375 385.253906 665.703125 366.699219 C 667.265625 353.808594 666.953125 328.417969 664.921875 316.796875 C 661.484375 296.09375 654.21875 275.292969 645.625 261.035156 C 635.546875 244.53125 618.046875 228.027344 609.453125 227.050781 C 607.890625 226.855469 605.078125 226.269531 603.125 225.683594 C 598.75 224.414062 598.4375 224.414062 598.4375 225.585938 Z M 613.671875 229.589844 C 614.84375 230.957031 613.125 230.566406 610.9375 228.90625 L 608.984375 227.441406 L 610.9375 228.125 C 612.03125 228.417969 613.203125 229.101562 613.671875 229.589844 Z M 610.546875 276.367188 C 610.78125 276.855469 610.625 277.34375 610.234375 277.34375 C 609.765625 277.34375 609.375 276.855469 609.375 276.367188 C 609.375 275.78125 609.53125 275.390625 609.6875 275.390625 C 609.921875 275.390625 610.3125 275.78125 610.546875 276.367188 Z M 632.421875 295.410156 C 636.953125 303.417969 641.484375 314.941406 644.609375 326.660156 C 647.03125 335.839844 647.1875 337.304688 647.109375 349.609375 C 647.109375 364.355469 646.015625 372.070312 641.640625 389.160156 C 636.71875 408.300781 630.390625 421.777344 619.53125 436.035156 C 615.859375 440.820312 614.140625 443.457031 615.625 441.992188 C 620.390625 437.109375 628.984375 424.804688 633.28125 416.503906 C 637.265625 408.886719 642.1875 395.410156 642.1875 392.1875 C 642.1875 391.40625 642.5 390.527344 642.96875 390.136719 C 643.75 389.550781 642.03125 397.265625 639.6875 404.785156 C 634.84375 420.410156 620.625 443.652344 611.328125 451.269531 C 609.609375 452.636719 604.6875 456.640625 600.390625 460.15625 C 579.453125 477.34375 553.671875 488.769531 537.109375 488.183594 C 535.390625 488.085938 534.6875 487.890625 535.546875 487.597656 C 539.84375 486.328125 537.03125 485.839844 525.9375 486.132812 C 506.484375 486.71875 490.703125 483.984375 469.53125 476.5625 C 454.765625 471.289062 433.515625 461.621094 430.78125 458.886719 C 429.921875 458.007812 406.953125 445.019531 402.34375 442.773438 C 397.578125 440.527344 401.71875 441.308594 407.421875 443.75 C 440.3125 457.910156 466.796875 466.699219 489.0625 470.800781 C 499.140625 472.65625 526.5625 472.363281 537.5 470.3125 C 558.828125 466.210938 582.109375 453.222656 598.4375 436.230469 C 607.421875 426.953125 611.09375 422.167969 617.8125 411.230469 C 624.6875 400 631.09375 384.082031 633.984375 370.898438 C 636.171875 361.035156 637.578125 346.582031 637.03125 340.136719 C 635.078125 316.699219 632.8125 306.445312 626.171875 291.503906 C 623.828125 286.230469 621.875 281.640625 621.875 281.347656 C 621.875 280.078125 629.375 290.136719 632.421875 295.410156 Z M 644.921875 384.765625 C 644.609375 386.425781 644.21875 387.597656 643.984375 387.304688 C 643.75 387.109375 643.828125 385.449219 644.140625 383.789062 C 644.453125 382.128906 644.84375 380.957031 645.078125 381.25 C 645.3125 381.445312 645.234375 383.105469 644.921875 384.765625 Z M 373.046875 428.710938 C 373.28125 429.199219 373.125 429.6875 372.734375 429.6875 C 372.265625 429.6875 371.875 429.199219 371.875 428.710938 C 371.875 428.125 372.03125 427.734375 372.1875 427.734375 C 372.421875 427.734375 372.8125 428.125 373.046875 428.710938 Z M 529.140625 488.964844 C 528.59375 489.160156 527.5 489.160156 526.796875 488.964844 C 526.015625 488.671875 526.484375 488.476562 527.734375 488.476562 C 529.0625 488.476562 529.609375 488.671875 529.140625 488.964844 Z M 529.140625 488.964844 "/>
<path style=" stroke:none;fill-rule:nonzero;fill:rgb(14.509805%,38.82353%,92.156863%);fill-opacity:1;" d="M 597.96875 457.617188 C 596.5625 458.984375 596.5625 459.082031 598.28125 458.007812 C 599.21875 457.421875 600 456.738281 600 456.542969 C 600 455.761719 599.609375 455.957031 597.96875 457.617188 Z M 597.96875 457.617188 "/>
<path style=" stroke:none;fill-rule:nonzero;fill:rgb(14.509805%,38.82353%,92.156863%);fill-opacity:1;" d="M 569.609375 274.316406 C 573.75 277.148438 576.875 282.128906 580.46875 291.601562 C 583.125 298.632812 583.75 301.367188 584.140625 308.007812 C 584.6875 317.675781 583.046875 329.589844 580.078125 337.402344 C 575.234375 350.097656 563.984375 364.0625 552.34375 371.875 C 544.0625 377.539062 539.21875 379.6875 529.140625 382.421875 C 521.484375 384.472656 518.359375 384.765625 504.921875 384.765625 C 490.3125 384.765625 488.671875 384.570312 475.78125 381.347656 C 454.609375 375.976562 436.09375 369.335938 412.890625 358.984375 C 407.34375 356.445312 392.890625 351.269531 380.859375 347.460938 C 357.1875 340.039062 354.6875 339.355469 354.6875 340.234375 C 354.6875 341.308594 360.3125 343.75 362.8125 343.75 C 364.375 343.75 365.625 344.433594 366.25 345.703125 C 366.796875 346.875 366.875 347.65625 366.40625 347.65625 C 365.078125 347.65625 365.546875 351.367188 367.03125 351.855469 C 367.8125 352.148438 367.5 352.34375 366.25 352.441406 C 364.84375 352.539062 364.0625 353.125 364.0625 354.003906 C 364.0625 354.785156 364.453125 355.46875 364.84375 355.46875 C 365.3125 355.46875 365.625 356.933594 365.625 358.59375 C 365.625 362.597656 366.171875 363.574219 369.375 365.625 C 373.046875 367.96875 372.421875 368.359375 368.203125 366.308594 C 366.09375 365.332031 363.125 364.453125 361.484375 364.453125 C 359.921875 364.355469 354.296875 363.183594 348.984375 361.816406 C 330.859375 357.03125 288.203125 356.445312 268.90625 360.742188 C 265.390625 361.621094 259.609375 363.867188 256.171875 365.820312 C 252.65625 367.773438 247.109375 370.019531 243.671875 370.898438 C 240.3125 371.679688 237.734375 372.65625 237.890625 373.144531 C 238.125 373.535156 237.578125 373.632812 236.640625 373.339844 C 235.703125 372.949219 234.6875 373.339844 234.296875 374.121094 C 233.828125 375.097656 232.34375 375.390625 229.53125 375.195312 C 227.265625 375.097656 223.203125 374.902344 220.546875 374.902344 C 217.8125 374.902344 215.625 374.414062 215.625 373.925781 C 215.625 372.753906 212.734375 372.753906 212.109375 374.023438 C 211.875 374.511719 211.25 374.804688 210.703125 374.609375 C 210.15625 374.511719 210 374.511719 210.3125 374.707031 C 211.09375 375.292969 209.53125 378.90625 208.515625 378.90625 C 208.046875 378.90625 207.96875 378.417969 208.203125 377.929688 C 208.828125 376.660156 208.203125 376.660156 206.015625 378.125 C 205.078125 378.710938 203.75 379.492188 203.125 379.882812 C 201.796875 380.761719 201.5625 388.085938 202.890625 389.746094 C 203.828125 390.917969 214.53125 389.160156 216.328125 387.5 C 217.03125 386.816406 216.875 387.207031 216.015625 388.28125 C 215.15625 389.453125 210.390625 393.554688 205.46875 397.460938 C 186.5625 412.597656 169.921875 432.421875 168.359375 441.699219 C 168.046875 443.457031 167.421875 445.410156 166.953125 446.09375 C 166.5625 446.777344 166.40625 447.558594 166.640625 447.949219 C 166.953125 448.242188 169.21875 445.898438 171.796875 442.675781 C 174.296875 439.453125 177.734375 435.546875 179.375 433.984375 C 181.09375 432.421875 184.453125 428.90625 186.875 426.171875 C 191.40625 420.996094 206.25 407.421875 214.140625 401.171875 C 219.453125 396.972656 232.109375 388.867188 239.0625 385.253906 C 250.859375 379.003906 268.515625 373.828125 287.109375 370.996094 C 296.640625 369.53125 319.21875 370.3125 332.03125 372.558594 C 344.375 374.707031 361.015625 379.199219 372.265625 383.300781 C 381.640625 386.621094 385.9375 388.378906 408.203125 397.460938 C 446.171875 412.988281 462.265625 417.96875 484.765625 421.386719 C 501.640625 424.023438 514.53125 423.144531 528.515625 418.554688 C 541.71875 414.160156 545.703125 412.402344 554.0625 407.128906 C 575.078125 393.945312 588.125 377.539062 596.484375 353.808594 C 600.078125 343.359375 601.015625 337.109375 601.015625 322.753906 C 601.09375 309.375 599.6875 302.34375 594.84375 292.382812 C 588.90625 279.980469 581.40625 273.535156 572.109375 272.753906 L 566.796875 272.363281 Z M 582.109375 286.035156 C 583.4375 290.234375 582.265625 289.257812 579.6875 283.984375 C 577.1875 278.90625 577.1875 278.808594 579.296875 281.25 C 580.46875 282.617188 581.71875 284.765625 582.109375 286.035156 Z M 582.109375 286.035156 "/>
<path style=" stroke:none;fill-rule:nonzero;fill:rgb(14.509805%,38.82353%,92.156863%);fill-opacity:1;" d="M 444.921875 370.117188 C 445.78125 370.605469 447.1875 370.996094 448.046875 370.996094 L 449.609375 370.996094 L 448.046875 370.117188 C 447.1875 369.628906 445.78125 369.238281 444.921875 369.238281 L 443.359375 369.238281 Z M 444.921875 370.117188 "/>
<path style=" stroke:none;fill-rule:nonzero;fill:rgb(14.509805%,38.82353%,92.156863%);fill-opacity:1;" d="M 338.90625 390.332031 C 339.375 390.527344 340.3125 390.527344 340.859375 390.332031 C 341.328125 390.039062 340.9375 389.84375 339.84375 389.84375 C 338.75 389.84375 338.359375 390.039062 338.90625 390.332031 Z M 338.90625 390.332031 "/>
<path style=" stroke:none;fill-rule:nonzero;fill:rgb(14.509805%,38.82353%,92.156863%);fill-opacity:1;" d="M 344.375 391.308594 C 344.84375 391.503906 345.78125 391.503906 346.328125 391.308594 C 346.796875 391.015625 346.40625 390.820312 345.3125 390.820312 C 344.21875 390.820312 343.828125 391.015625 344.375 391.308594 Z M 344.375 391.308594 "/>
<path style=" stroke:none;fill-rule:nonzero;fill:rgb(14.509805%,38.82353%,92.156863%);fill-opacity:1;" d="M 348.4375 391.992188 C 348.4375 392.1875 349.296875 392.578125 350.390625 392.773438 C 351.40625 393.066406 352.109375 392.871094 351.875 392.480469 C 351.484375 391.601562 348.4375 391.210938 348.4375 391.992188 Z M 348.4375 391.992188 "/>
<path style=" stroke:none;fill-rule:nonzero;fill:rgb(14.509805%,38.82353%,92.156863%);fill-opacity:1;" d="M 194.53125 402.832031 C 193.90625 403.710938 193.90625 404.296875 194.375 404.296875 C 195.3125 404.296875 196.40625 402.441406 195.859375 401.757812 C 195.703125 401.5625 195.078125 401.953125 194.53125 402.832031 Z M 194.53125 402.832031 "/>
<path style=" stroke:none;fill-rule:nonzero;fill:rgb(14.509805%,38.82353%,92.156863%);fill-opacity:1;" d="M 442.578125 424.804688 C 443.4375 425.292969 444.6875 425.683594 445.3125 425.683594 C 446.015625 425.683594 445.9375 425.292969 444.921875 424.804688 C 444.0625 424.316406 442.8125 423.925781 442.1875 423.925781 C 441.484375 423.925781 441.5625 424.316406 442.578125 424.804688 Z M 442.578125 424.804688 "/>
<path style=" stroke:none;fill-rule:nonzero;fill:rgb(14.509805%,38.82353%,92.156863%);fill-opacity:1;" d="M 447.5 426.464844 C 447.96875 426.660156 448.90625 426.660156 449.453125 426.464844 C 449.921875 426.171875 449.53125 425.976562 448.4375 425.976562 C 447.34375 425.976562 446.953125 426.171875 447.5 426.464844 Z M 447.5 426.464844 "/>
<path style=" stroke:none;fill-rule:nonzero;fill:rgb(14.509805%,38.82353%,92.156863%);fill-opacity:1;" d="M 279.53125 466.015625 C 277.03125 470.410156 277.03125 481.738281 279.453125 488.476562 C 282.890625 497.949219 292.265625 505.859375 299.921875 505.859375 C 301.640625 505.859375 305.3125 504.980469 308.203125 503.808594 C 316.25 500.683594 323.046875 491.308594 324.53125 481.25 C 325.15625 477.148438 323.75 469.335938 322.1875 467.675781 C 321.171875 466.601562 311.25 463.867188 308.4375 463.867188 C 307.1875 463.867188 307.265625 464.160156 308.59375 467.96875 C 310.3125 472.753906 310.546875 475.976562 309.296875 480.371094 C 306.875 488.964844 295.46875 487.890625 292.5 478.808594 C 291.09375 474.707031 291.484375 470.800781 293.75 466.894531 L 295.234375 464.160156 L 290.46875 463.476562 C 282.1875 462.402344 281.484375 462.597656 279.53125 466.015625 Z M 279.53125 466.015625 "/>
<path style=" stroke:none;fill-rule:nonzero;fill:rgb(14.509805%,38.82353%,92.156863%);fill-opacity:1;" d="M 679.140625 528.320312 C 675.15625 531.347656 674.0625 534.179688 674.6875 540.039062 C 675.703125 549.609375 680.3125 554.296875 686.5625 551.953125 C 695.9375 548.4375 697.34375 533.105469 688.828125 528.222656 C 684.609375 525.878906 682.265625 525.878906 679.140625 528.320312 Z M 689.453125 531.445312 C 692.109375 534.667969 692.421875 535.839844 692.265625 541.699219 C 692.1875 544.238281 691.5625 545.507812 688.90625 547.851562 C 683.828125 552.441406 679.0625 551.5625 677.421875 545.800781 C 675.234375 537.792969 677.34375 529.882812 681.875 529.003906 C 686.171875 528.222656 686.796875 528.417969 689.453125 531.445312 Z M 689.453125 531.445312 "/>
<path style=" stroke:none;fill-rule:nonzero;fill:rgb(14.509805%,38.82353%,92.156863%);fill-opacity:1;" d="M 680.625 532.421875 C 679.375 533.984375 679.453125 535.15625 680.703125 535.15625 C 681.484375 535.15625 681.640625 536.71875 681.40625 541.503906 C 681.171875 545.605469 681.328125 547.851562 681.875 547.851562 C 682.96875 547.851562 683.75 546.289062 684.375 542.578125 L 684.921875 539.550781 L 685.859375 542.675781 C 687.578125 548.242188 688.671875 547.265625 688.671875 539.941406 C 688.671875 535.15625 688.4375 533.300781 687.734375 533.59375 C 687.265625 533.886719 686.40625 533.398438 685.9375 532.617188 C 684.765625 530.957031 681.875 530.859375 680.625 532.421875 Z M 686.015625 535.742188 C 686.953125 537.109375 686.875 537.304688 685.625 537.011719 C 684.765625 536.816406 683.984375 536.035156 683.75 535.351562 C 683.359375 533.691406 684.765625 533.886719 686.015625 535.742188 Z M 686.015625 535.742188 "/>
<path style=" stroke:none;fill-rule:nonzero;fill:rgb(14.509805%,38.82353%,92.156863%);fill-opacity:1;" d="M 275.390625 532.421875 C 271.09375 532.910156 263.4375 533.105469 258.28125 532.8125 L 249.0625 532.421875 L 251.015625 534.960938 C 254.921875 540.332031 254.921875 540.039062 255.234375 581.445312 L 255.46875 620.507812 L 252.96875 617.578125 C 246.640625 610.449219 204.609375 557.03125 197.8125 547.558594 C 188.671875 534.863281 187.109375 533.496094 180.859375 533.398438 C 178.28125 533.398438 171.953125 533.007812 166.796875 532.714844 L 157.421875 532.03125 L 160.234375 535.742188 C 166.40625 543.847656 166.015625 539.550781 166.015625 604.003906 C 166.015625 660.449219 166.015625 661.71875 164.375 666.015625 C 163.515625 668.457031 161.484375 671.972656 159.921875 673.828125 L 157.109375 677.246094 L 196.71875 677.246094 L 193.75 673.144531 C 191.953125 670.800781 190.546875 667.773438 190.3125 665.820312 C 189.375 658.59375 189.140625 637.597656 189.6875 610.058594 L 190.234375 580.957031 L 194.609375 587.597656 C 197.03125 591.210938 205.3125 602.441406 213.046875 612.402344 C 227.734375 631.445312 250.859375 663.085938 256.25 671.679688 L 259.53125 676.757812 L 267.8125 676.757812 C 272.421875 676.757812 278.59375 677.050781 281.484375 677.441406 L 286.796875 678.027344 L 283.671875 674.21875 C 281.796875 671.777344 280.234375 668.75 279.6875 666.015625 C 278.671875 661.328125 279.0625 548.632812 280.078125 543.652344 C 280.390625 542.1875 282.265625 538.769531 284.140625 536.132812 L 287.65625 531.25 L 285.390625 531.347656 C 284.21875 531.445312 279.6875 531.933594 275.390625 532.421875 Z M 275.390625 532.421875 "/>
<path style=" stroke:none;fill-rule:nonzero;fill:rgb(14.509805%,38.82353%,92.156863%);fill-opacity:1;" d="M 375 532.421875 C 372.65625 532.910156 363.90625 533.203125 355.625 533.007812 C 340.859375 532.714844 340.625 532.714844 342.578125 534.472656 C 343.671875 535.546875 345.46875 538.183594 346.484375 540.527344 L 348.515625 544.726562 L 348.28125 605.566406 L 348.046875 666.503906 L 346.25 670.117188 C 345.234375 672.070312 343.59375 674.511719 342.5 675.488281 C 340.625 677.148438 341.171875 677.246094 360.859375 677.246094 L 381.09375 677.246094 L 378.4375 674.511719 C 372.8125 668.652344 373.046875 671.972656 372.8125 608.007812 C 372.65625 568.945312 372.890625 548.828125 373.4375 545.3125 C 374.140625 541.40625 375.078125 539.257812 377.421875 536.328125 C 380.390625 532.617188 381.09375 531.152344 379.921875 531.347656 C 379.53125 531.445312 377.34375 531.933594 375 532.421875 Z M 375 532.421875 "/>
<path style=" stroke:none;fill-rule:nonzero;fill:rgb(14.509805%,38.82353%,92.156863%);fill-opacity:1;" d="M 471.09375 532.421875 C 468.75 532.910156 460.234375 533.203125 452.109375 533.007812 C 437.65625 532.714844 437.5 532.714844 439.453125 534.570312 C 440.546875 535.546875 442.265625 538.183594 443.203125 540.429688 L 444.921875 544.433594 L 444.84375 603.515625 L 444.84375 662.597656 L 443.046875 667.480469 C 442.109375 670.117188 440.390625 673.632812 439.21875 675.195312 L 437.109375 678.027344 L 440.9375 677.34375 C 443.046875 677.050781 461.71875 676.757812 482.5 676.757812 L 520.3125 676.757812 L 520.3125 669.628906 C 520.3125 665.820312 521.015625 657.128906 521.875 650.390625 C 522.65625 643.75 523.28125 638.085938 523.125 637.988281 C 523.046875 637.792969 521.796875 639.648438 520.390625 641.992188 C 518.984375 644.335938 516.875 646.777344 515.78125 647.460938 C 514.296875 648.339844 507.03125 648.828125 491.09375 649.21875 L 468.515625 649.707031 L 469.0625 647.363281 C 469.375 646.09375 469.765625 622.851562 470 595.703125 C 470.234375 568.554688 470.546875 545.019531 470.78125 543.359375 C 471.015625 541.40625 472.34375 538.769531 474.21875 536.523438 C 478.828125 530.957031 478.75 530.761719 471.09375 532.421875 Z M 471.09375 532.421875 "/>
<path style=" stroke:none;fill-rule:nonzero;fill:rgb(14.509805%,38.82353%,92.156863%);fill-opacity:1;" d="M 662.5 532.421875 C 658.828125 533.496094 587.421875 533.886719 578.203125 532.910156 L 570.859375 532.03125 L 573.75 535.253906 C 575.390625 537.011719 577.34375 540.136719 578.203125 542.1875 C 579.6875 545.898438 579.765625 547.753906 579.53125 604.296875 C 579.296875 669.628906 579.609375 665.917969 573.4375 673.535156 L 570.546875 677.246094 L 663.984375 677.246094 L 664.375 671.386719 C 664.609375 668.164062 665 661.425781 665.234375 656.445312 C 665.46875 651.367188 665.9375 645.898438 666.171875 644.238281 L 666.640625 641.113281 L 660.078125 648.925781 L 644.296875 649.21875 C 635.625 649.414062 623.125 649.316406 616.640625 648.925781 L 604.6875 648.242188 L 604.6875 616.699219 L 626.328125 616.992188 C 647.96875 617.1875 648.046875 617.285156 649.609375 619.53125 C 650.46875 620.800781 651.5625 622.558594 651.953125 623.4375 C 652.5 624.609375 652.734375 619.140625 652.734375 605.761719 L 652.734375 586.425781 L 650 588.085938 C 647.65625 589.648438 644.84375 589.84375 626.015625 589.84375 L 604.6875 589.84375 L 604.6875 560.644531 L 630.703125 561.132812 C 644.921875 561.425781 657.421875 561.816406 658.359375 562.109375 C 659.375 562.304688 660.78125 564.0625 661.640625 566.210938 L 663.203125 569.824219 L 663.28125 558.398438 C 663.28125 552.148438 663.828125 543.652344 664.453125 539.453125 C 665.078125 535.253906 665.546875 531.835938 665.390625 531.738281 C 665.3125 531.640625 663.984375 531.933594 662.5 532.421875 Z M 662.5 532.421875 "/>
<path style=" stroke:none;fill-rule:nonzero;fill:rgb(14.509805%,38.82353%,92.156863%);fill-opacity:1;" d="M 229.0625 710.742188 C 228.125 711.132812 226.09375 712.695312 224.609375 714.160156 C 222.34375 716.40625 221.875 717.480469 221.875 720.703125 C 221.875 725.878906 224.84375 729.882812 230.390625 732.226562 C 234.921875 734.179688 236.484375 736.035156 235.703125 738.671875 C 235 740.917969 229.921875 740.722656 226.796875 738.28125 L 224.296875 736.425781 L 222.65625 738.964844 C 220.703125 742.089844 220.859375 743.066406 224.140625 745.800781 C 227.421875 748.535156 232.65625 749.511719 236.25 748.046875 C 244.609375 744.628906 246.328125 731.25 238.984375 726.5625 C 237.34375 725.488281 235.625 724.609375 235.15625 724.609375 C 234.6875 724.609375 233.046875 723.925781 231.484375 723.144531 C 229.140625 721.875 228.90625 721.484375 229.6875 720.214844 C 230.9375 718.359375 235.15625 718.359375 237.1875 720.214844 C 239.53125 722.363281 240.546875 721.972656 241.953125 718.164062 C 243.28125 714.746094 243.28125 714.648438 241.796875 713.28125 C 238.75 710.449219 233.046875 709.375 229.0625 710.742188 Z M 229.0625 710.742188 "/>
<path style=" stroke:none;fill-rule:nonzero;fill:rgb(14.509805%,38.82353%,92.156863%);fill-opacity:1;" d="M 618.984375 710.742188 C 615.78125 711.035156 615.625 711.230469 614.84375 715.136719 C 614.296875 717.382812 613.125 722.558594 612.109375 726.5625 L 610.3125 733.789062 L 609.453125 729.980469 C 608.984375 727.832031 608.59375 725.585938 608.59375 725 C 608.59375 724.316406 607.890625 720.898438 607.03125 717.382812 L 605.390625 710.9375 L 599.375 710.9375 L 598.046875 717.96875 C 596.171875 727.734375 594.84375 732.8125 594.375 731.835938 C 594.140625 731.347656 593.203125 727.636719 592.34375 723.632812 C 589.53125 710.644531 589.6875 710.9375 585.15625 710.9375 C 581.640625 710.9375 581.25 711.132812 581.953125 712.597656 C 582.34375 713.574219 583.59375 718.75 584.765625 724.121094 C 585.9375 729.492188 587.890625 737.304688 589.21875 741.40625 C 591.328125 748.4375 591.71875 749.023438 593.75 749.023438 C 596.484375 749.023438 597.109375 747.949219 598.75 740.234375 C 599.53125 736.71875 600.546875 732.617188 601.015625 731.054688 C 601.953125 728.320312 602.03125 728.417969 605 738.183594 L 607.96875 748.046875 L 613.90625 748.046875 L 618.671875 729.785156 C 621.25 719.628906 623.125 711.230469 622.8125 710.9375 C 622.5 710.644531 620.78125 710.546875 618.984375 710.742188 Z M 618.984375 710.742188 "/>
<path style=" stroke:none;fill-rule:nonzero;fill:rgb(14.509805%,38.82353%,92.156863%);fill-opacity:1;" d="M 253.28125 729.589844 L 253.515625 748.535156 L 260.546875 749.121094 L 260.546875 733.886719 L 271.484375 733.886719 L 271.71875 740.917969 C 271.953125 747.558594 272.109375 748.046875 273.671875 748.046875 C 274.609375 748.046875 276.171875 748.339844 277.1875 748.632812 L 278.90625 749.21875 L 278.75 730.371094 L 278.515625 711.425781 L 275.234375 711.132812 L 271.875 710.839844 L 271.875 717.675781 C 271.875 721.386719 271.640625 724.609375 271.328125 724.804688 C 270.9375 725 268.359375 725 265.46875 724.804688 L 260.15625 724.414062 L 260.15625 718.164062 C 260.15625 712.304688 260 711.914062 258.4375 711.914062 C 257.421875 711.914062 255.859375 711.621094 254.84375 711.328125 L 253.125 710.742188 Z M 253.28125 729.589844 "/>
<path style=" stroke:none;fill-rule:nonzero;fill:rgb(14.509805%,38.82353%,92.156863%);fill-opacity:1;" d="M 298.984375 712.304688 C 294.765625 713.769531 290.234375 718.554688 288.59375 723.339844 C 286.09375 730.566406 288.359375 739.941406 293.90625 745.507812 C 297.34375 748.828125 303.515625 750 308.046875 748.144531 C 312.265625 746.386719 317.65625 739.550781 318.671875 734.667969 C 320.625 725.585938 315.78125 715.136719 308.4375 712.402344 C 303.75 710.644531 303.828125 710.644531 298.984375 712.304688 Z M 308.828125 723.632812 C 312.03125 728.125 311.796875 733.203125 308.203125 737.207031 C 306.640625 738.867188 304.53125 740.234375 303.4375 740.234375 C 298.75 740.234375 293.984375 733.789062 294.921875 728.613281 C 295.390625 725.878906 298.515625 721.484375 300.78125 720.410156 C 303.046875 719.238281 306.640625 720.703125 308.828125 723.632812 Z M 308.828125 723.632812 "/>
<path style=" stroke:none;fill-rule:nonzero;fill:rgb(14.509805%,38.82353%,92.156863%);fill-opacity:1;" d="M 373.203125 711.621094 C 373.046875 712.109375 372.65625 714.0625 372.34375 716.015625 L 371.796875 719.726562 L 381.25 719.726562 L 381.25 748.046875 L 388.28125 748.046875 L 388.28125 738.378906 C 388.28125 733.105469 388.515625 726.660156 388.828125 724.121094 L 389.296875 719.53125 L 393.125 719.921875 L 396.875 720.410156 L 396.875 710.9375 L 385.234375 710.9375 C 378.75 710.9375 373.359375 711.230469 373.203125 711.621094 Z M 373.203125 711.621094 "/>
<path style=" stroke:none;fill-rule:nonzero;fill:rgb(14.509805%,38.82353%,92.156863%);fill-opacity:1;" d="M 405.46875 729.492188 L 405.46875 748.046875 L 412.421875 748.046875 L 412.65625 740.917969 L 412.890625 733.886719 L 418.59375 733.59375 L 424.21875 733.300781 L 424.21875 748.046875 L 430.46875 748.046875 L 430.46875 732.128906 C 430.46875 723.4375 430.703125 715.332031 430.9375 714.257812 C 431.328125 712.5 430.9375 712.109375 428.671875 711.523438 C 424.140625 710.449219 423.4375 711.328125 423.4375 718.261719 L 423.4375 724.414062 L 420.703125 725 C 419.21875 725.390625 416.796875 725.390625 415.3125 725.097656 C 412.421875 724.414062 411.71875 722.363281 411.71875 714.746094 C 411.71875 710.9375 411.71875 710.9375 408.59375 710.9375 L 405.46875 710.9375 Z M 405.46875 729.492188 "/>
<path style=" stroke:none;fill-rule:nonzero;fill:rgb(14.509805%,38.82353%,92.156863%);fill-opacity:1;" d="M 444.921875 711.816406 L 441.796875 712.402344 L 441.484375 730.175781 L 441.171875 748.046875 L 463.359375 748.046875 L 463.125 743.847656 L 462.890625 739.746094 L 448.359375 739.160156 L 448.828125 732.910156 L 459.765625 731.933594 L 460 728.222656 L 460.234375 724.609375 L 448.671875 724.609375 L 449.0625 721.679688 L 449.375 718.75 L 463.28125 718.75 L 463.28125 710.9375 L 455.703125 711.132812 C 451.484375 711.132812 446.640625 711.523438 444.921875 711.816406 Z M 444.921875 711.816406 "/>
<path style=" stroke:none;fill-rule:nonzero;fill:rgb(14.509805%,38.82353%,92.156863%);fill-opacity:1;" d="M 488.28125 718.457031 C 488.28125 722.65625 488.046875 731.054688 487.734375 737.011719 L 487.265625 748.046875 L 494.53125 748.046875 L 494.53125 734.375 L 506.328125 734.375 L 506.09375 730.664062 L 505.859375 727.050781 L 501.953125 726.757812 C 495.15625 726.367188 494.53125 725.976562 494.53125 722.167969 L 494.53125 718.75 L 508.59375 718.75 L 508.59375 710.9375 L 488.28125 710.9375 Z M 488.28125 718.457031 "/>
<path style=" stroke:none;fill-rule:nonzero;fill:rgb(14.509805%,38.82353%,92.156863%);fill-opacity:1;" d="M 517.1875 728.90625 L 517.1875 747.070312 L 526.171875 747.070312 C 531.09375 747.070312 535.390625 747.070312 535.78125 747.070312 C 536.09375 747.070312 536.40625 745.117188 536.5625 742.675781 L 536.796875 738.28125 L 524.296875 738.28125 L 524.0625 724.804688 L 523.828125 711.425781 L 520.546875 711.132812 L 517.1875 710.839844 Z M 517.1875 728.90625 "/>
<path style=" stroke:none;fill-rule:nonzero;fill:rgb(14.509805%,38.82353%,92.156863%);fill-opacity:1;" d="M 552.578125 712.988281 C 548.125 715.722656 543.75 724.023438 543.75 729.882812 C 543.75 734.277344 547.734375 742.285156 551.40625 745.214844 C 561.484375 753.125 572.265625 747.363281 574.921875 732.519531 C 576.171875 725.292969 573.125 716.992188 567.65625 712.792969 C 564.296875 710.253906 556.953125 710.253906 552.578125 712.988281 Z M 565.546875 723.144531 C 568.828125 727.832031 568.828125 732.128906 565.546875 736.230469 C 561.484375 741.40625 554.609375 739.746094 552.03125 733.007812 C 550.546875 729.003906 551.25 725.78125 554.375 722.167969 C 555.9375 720.3125 557.34375 719.726562 559.765625 719.726562 C 562.65625 719.726562 563.515625 720.214844 565.546875 723.144531 Z M 565.546875 723.144531 "/>
<path style=" stroke:none;fill-rule:nonzero;fill:rgb(14.509805%,38.82353%,92.156863%);fill-opacity:1;" d="M 328.90625 730.46875 L 328.90625 749.023438 L 335.859375 749.023438 L 336.09375 742.871094 L 336.328125 736.816406 L 341.015625 736.328125 C 346.40625 735.742188 349.375 733.789062 351.5625 729.199219 C 353.59375 725.195312 353.515625 722.265625 351.40625 718.066406 C 349.0625 713.183594 345.9375 711.914062 336.71875 711.914062 L 328.90625 711.914062 Z M 343.59375 719.921875 C 344.140625 720.605469 344.53125 722.558594 344.53125 724.316406 C 344.53125 727.929688 342.890625 729.492188 339.140625 729.492188 C 336.71875 729.492188 336.71875 729.492188 336.71875 724.121094 L 336.71875 718.75 L 339.6875 718.75 C 341.328125 718.75 343.046875 719.238281 343.59375 719.921875 Z M 343.59375 719.921875 "/>
<path style=" stroke:none;fill-rule:nonzero;fill:rgb(14.509805%,38.82353%,92.156863%);fill-opacity:1;" d="M 642.421875 719.921875 C 637.734375 726.074219 637.421875 731.054688 641.40625 735.839844 C 643.046875 737.792969 644.6875 738.671875 647.5 739.0625 C 652.1875 739.550781 654.140625 738.378906 656.71875 733.300781 C 657.734375 731.152344 658.984375 729.6875 659.453125 730.078125 C 661.25 731.445312 658.359375 726.269531 654.765625 721.582031 C 651.5625 717.382812 650.625 716.796875 647.96875 716.796875 C 645.46875 716.796875 644.375 717.480469 642.421875 719.921875 Z M 642.421875 719.921875 "/>
<path style=" stroke:none;fill-rule:nonzero;fill:rgb(14.509805%,38.82353%,92.156863%);fill-opacity:1;" d="M 186.09375 719.726562 C 184.53125 720.996094 182.890625 723.4375 181.953125 726.171875 L 180.390625 730.566406 L 181.953125 733.789062 C 184.84375 739.550781 190.9375 741.210938 195.3125 737.304688 C 198.515625 734.472656 200.15625 730.273438 199.296875 727.34375 C 198.359375 724.414062 194.6875 720.117188 191.953125 718.847656 C 189.0625 717.480469 189.0625 717.480469 186.09375 719.726562 Z M 185 723.828125 C 184.84375 724.414062 184.21875 725.195312 183.75 725.390625 C 183.203125 725.585938 182.96875 725.195312 183.28125 724.21875 C 183.828125 722.460938 185.46875 722.070312 185 723.828125 Z M 185 723.828125 "/>
<path style=" stroke:none;fill-rule:nonzero;fill:rgb(14.509805%,38.82353%,92.156863%);fill-opacity:1;" d="M 305.234375 774.414062 C 301.640625 777.246094 301.5625 777.441406 301.5625 782.324219 C 301.5625 786.816406 301.875 787.695312 304.609375 791.113281 C 308.75 796.289062 311.40625 796.289062 316.015625 790.917969 C 317.890625 788.769531 319.6875 785.742188 319.921875 784.179688 C 320.859375 778.710938 315.9375 771.484375 311.171875 771.484375 C 309.921875 771.484375 307.265625 772.753906 305.234375 774.414062 Z M 315.546875 780.46875 C 316.5625 782.617188 316.5625 783.398438 315.703125 785.546875 C 313.515625 790.527344 308.28125 790.917969 306.25 786.132812 C 304.0625 781.054688 306.328125 777.050781 311.171875 777.539062 C 313.75 777.734375 314.6875 778.417969 315.546875 780.46875 Z M 315.546875 780.46875 "/>
<path style=" stroke:none;fill-rule:nonzero;fill:rgb(14.509805%,38.82353%,92.156863%);fill-opacity:1;" d="M 531.796875 772.167969 C 531.484375 772.460938 531.25 777.539062 531.25 783.398438 L 531.25 793.945312 L 537.96875 793.945312 C 544.453125 793.945312 544.609375 793.847656 544.375 791.699219 C 544.140625 789.84375 543.59375 789.550781 540 789.257812 C 536.25 788.964844 535.859375 788.769531 536.09375 786.816406 C 536.25 785.058594 536.953125 784.570312 539.609375 784.375 C 541.484375 784.179688 543.046875 783.496094 543.28125 782.617188 C 543.59375 781.542969 542.890625 781.25 539.84375 781.25 C 536.171875 781.25 535.9375 781.054688 535.9375 778.808594 C 535.9375 776.464844 536.171875 776.367188 540.234375 776.367188 C 543.59375 776.367188 544.53125 776.074219 544.53125 774.902344 C 544.53125 774.023438 543.59375 772.949219 542.5 772.460938 C 540.234375 771.386719 532.578125 771.191406 531.796875 772.167969 Z M 531.796875 772.167969 "/>
<path style=" stroke:none;fill-rule:nonzero;fill:rgb(14.509805%,38.82353%,92.156863%);fill-opacity:1;" d="M 334.53125 774.414062 C 333.125 775.488281 331.640625 777.539062 331.171875 779.003906 C 329.453125 784.765625 332.734375 794.238281 335.703125 792.1875 C 336.484375 791.601562 337.65625 791.699219 338.984375 792.578125 C 340.078125 793.359375 342.109375 793.945312 343.4375 793.945312 C 345.546875 793.945312 345.9375 793.457031 346.71875 790.136719 C 348.359375 783.300781 348.046875 781.445312 344.921875 780.664062 C 343.4375 780.371094 341.640625 780.273438 341.015625 780.664062 C 339.140625 781.542969 339.6875 783.203125 341.796875 783.203125 C 343.203125 783.203125 343.75 783.691406 343.75 785.058594 C 343.75 787.304688 342.421875 788.671875 339.765625 789.257812 C 338.125 789.648438 337.421875 789.160156 336.40625 787.011719 C 333.59375 781.152344 336.015625 777.34375 342.578125 777.34375 C 347.1875 777.34375 347.890625 776.367188 345.15625 774.023438 C 342.734375 771.875 337.65625 772.070312 334.53125 774.414062 Z M 334.53125 774.414062 "/>
<path style=" stroke:none;fill-rule:nonzero;fill:rgb(14.509805%,38.82353%,92.156863%);fill-opacity:1;" d="M 358.359375 783.398438 L 358.59375 794.433594 L 364.0625 794.433594 C 369.140625 794.433594 369.53125 794.238281 369.53125 792.382812 C 369.53125 790.527344 368.90625 790.136719 365.390625 789.648438 L 361.328125 788.964844 L 361.640625 781.25 C 361.796875 776.367188 361.5625 773.4375 361.09375 773.4375 C 360.625 773.4375 359.84375 773.242188 359.21875 772.949219 C 358.4375 772.558594 358.203125 774.609375 358.359375 783.398438 Z M 358.359375 783.398438 "/>
<path style=" stroke:none;fill-rule:nonzero;fill:rgb(14.509805%,38.82353%,92.156863%);fill-opacity:1;" d="M 379.84375 783.398438 C 380.078125 793.066406 380.234375 794.433594 381.484375 794.726562 C 382.734375 795.019531 382.8125 794.140625 382.65625 783.984375 C 382.421875 774.316406 382.265625 772.949219 381.015625 772.65625 C 379.765625 772.363281 379.6875 773.242188 379.84375 783.398438 Z M 379.84375 783.398438 "/>
<path style=" stroke:none;fill-rule:nonzero;fill:rgb(14.509805%,38.82353%,92.156863%);fill-opacity:1;" d="M 393.90625 782.910156 C 394.140625 791.992188 394.296875 793.457031 395.546875 793.75 C 396.71875 794.042969 396.875 793.261719 396.875 788.183594 C 396.875 784.863281 397.1875 782.226562 397.5 782.226562 C 397.8125 782.226562 398.671875 783.398438 399.375 784.863281 C 400.9375 788.085938 406.171875 794.921875 407.109375 794.921875 C 408.4375 794.921875 408.59375 792.871094 408.046875 782.8125 C 407.578125 772.851562 407.5 772.460938 405.78125 772.460938 C 403.984375 772.460938 403.984375 772.65625 404.453125 779.003906 C 404.921875 785.253906 404.84375 785.546875 403.59375 784.277344 C 402.890625 783.496094 401.328125 780.957031 400.234375 778.613281 C 398.359375 774.511719 396.40625 772.460938 394.53125 772.460938 C 393.984375 772.460938 393.75 775.78125 393.90625 782.910156 Z M 393.90625 782.910156 "/>
<path style=" stroke:none;fill-rule:nonzero;fill:rgb(14.509805%,38.82353%,92.156863%);fill-opacity:1;" d="M 418.75 783.496094 L 418.75 793.945312 L 424.6875 793.847656 C 430.15625 793.75 430.546875 793.554688 430.3125 791.601562 C 430.15625 789.941406 429.453125 789.453125 426.40625 789.257812 C 423.28125 788.964844 422.65625 788.671875 422.65625 787.011719 C 422.65625 785.449219 423.203125 785.15625 426.5625 785.15625 C 429.921875 785.15625 430.46875 784.863281 430.46875 783.203125 C 430.46875 781.542969 429.921875 781.25 426.640625 781.25 C 424.0625 781.25 422.65625 780.761719 422.421875 779.882812 C 421.796875 777.929688 422.5 777.34375 425.3125 777.34375 C 429.21875 777.34375 431.328125 776.269531 431.09375 774.511719 C 430.859375 773.242188 429.765625 772.949219 424.765625 772.949219 L 418.75 772.949219 Z M 418.75 783.496094 "/>
<path style=" stroke:none;fill-rule:nonzero;fill:rgb(14.509805%,38.82353%,92.156863%);fill-opacity:1;" d="M 482.96875 775.097656 C 481.25 780.566406 479.53125 789.84375 479.84375 792.089844 C 480.15625 795.410156 482.34375 795.117188 482.65625 791.699219 C 482.96875 788.574219 485.15625 787.109375 489.53125 787.109375 C 491.875 787.109375 492.421875 787.5 493.046875 789.941406 C 493.671875 792.1875 496.5625 794.628906 497.421875 793.652344 C 497.578125 793.359375 492.5 776.660156 491.484375 774.414062 C 491.09375 773.535156 489.453125 772.851562 487.34375 772.65625 C 484.140625 772.363281 483.75 772.558594 482.96875 775.097656 Z M 489.21875 780.761719 L 491.328125 785.15625 L 487.5 785.15625 C 485.3125 785.15625 483.59375 784.960938 483.59375 784.667969 C 483.59375 783.496094 486.171875 776.367188 486.640625 776.367188 C 486.875 776.367188 488.046875 778.417969 489.21875 780.761719 Z M 489.21875 780.761719 "/>
<path style=" stroke:none;fill-rule:nonzero;fill:rgb(14.509805%,38.82353%,92.156863%);fill-opacity:1;" d="M 509.6875 782.617188 L 509.6875 792.773438 L 513.125 793.359375 C 519.609375 794.433594 521.875 794.140625 521.875 792.089844 C 521.875 790.625 521.09375 790.136719 517.578125 789.550781 L 513.28125 788.964844 L 513.28125 780.664062 C 513.28125 772.851562 513.203125 772.460938 511.5625 772.460938 C 509.84375 772.460938 509.765625 772.753906 509.6875 782.617188 Z M 509.6875 782.617188 "/>
<path style=" stroke:none;fill-rule:nonzero;fill:rgb(14.509805%,38.82353%,92.156863%);fill-opacity:1;" d="M 453.75 779.882812 C 453.28125 788.964844 453.984375 794.335938 455.703125 794.726562 C 456.875 795.019531 457.03125 794.238281 457.03125 789.355469 L 457.03125 783.691406 L 461.25 789.257812 C 465.390625 794.921875 466.640625 795.800781 467.578125 793.945312 C 467.8125 793.359375 467.734375 792.96875 467.265625 792.96875 C 466.015625 792.96875 465.859375 789.84375 466.875 784.765625 C 468.59375 776.367188 466.40625 773.4375 458.28125 773.4375 L 454.0625 773.4375 Z M 461.5625 776.953125 C 463.359375 777.636719 463.828125 780.566406 462.5 783.203125 C 461.875 784.472656 461.40625 784.277344 459.6875 782.03125 C 458.359375 780.46875 457.8125 778.90625 458.046875 777.929688 C 458.59375 776.171875 458.90625 776.074219 461.5625 776.953125 Z M 461.5625 776.953125 "/>
</g>
</svg>
